# xmcd
#
# Track frame offsets:
#	150
#	15434
#	32791
#	44892
#	63696
#	74598
#	85936
#	99574
#	113263
#	130437
#	147076
#	159221
#	177471
#	193474
#	207335
#	224330
#	236164
#	255316
#	268941
#	280598
#	300697
#	314339
#	330524
#	343058
#
# Disc length: 4745 seconds
#
# Revision: 0
# Processed by: cddbd v1.5.2PL0 Copyright (c) Steve Scherf et al.
# Submitted via: audiograbber 1.83.01
#
DISCID=71128718
DTITLE=Country´s Best - Volume 2
DYEAR=2009
DGENRE=Country
TTITLE0=BELLAMY BROTHERS  - DANCIN' COWBOYS
TTITLE1=CHARLY´S OUTLAWS  - COULD IT BE
TTITLE2=CHICKEN TRAIN  - THATS WHAT I NEED
TTITLE3=COUNTRY GITTY  - WHATEVER MAYBE
TTITLE4=DAGMAR - LIEBER STIRBT ER AUS DEN STIEFELN
TTITLE5=FOXTOWER BLUEGRASS BAND  - NECHVILLE BREAKDOWN
TTITLE6=GITTY and EVERYBODY´S DARLING  - TRAIN TRAIN TRAIN
TTITLE7=GITTY FISHER - RIGHT AFTER MIDNIGHT
TTITLE8=GLANDT and KRALIK  - I CANNOT HAVE HER 'CAUSE I'M NOT RICH
TTITLE9=HERMANN LAMMERS MEYER - BEAR CREEK LOUNGE
TTITLE10=MACKAY JACKSON - THE LONELY BUSHMAN
TTITLE11=JENNY BONEJA - YOU SHOULD HAVE
TTITLE12=JERRY LEE FOX  - BIKER'S DREAM
TTITLE13=JOE HODGKINS - WEEKEND COWBOY LOVERS
TTITLE14=JOE HODGKINS and BOSS BAND - ZWEI HERZEN IM WIND
TTITLE15=KATIE GRANT - ONE DAY YOU'RE KNOCKING AT MY DOOR
TTITLE16=LUCKY SALE - I NEED SOMEONE
TTITLE17=MARK BENDER - DER REGENMANN
TTITLE18=PATRICIA LARRASS - COUNTRYFEELING PUR
TTITLE19=RASCAL and MCLANE XL - FREEDOM OKLAHOMA
TTITLE20=ROLAND HEINL - THIS IS THE RIGHT TIME
TTITLE21=SIMPLE UNION - LIKE AN EMPTY BOTTLE OF WINE
TTITLE22=TABEA ANDERFUHREN - HOW COULD I GIVE MYSELF UP FOR YOU
TTITLE23=NELSON and HERMANN LAMMERS MEYER  - THE PART WHERE I CRY
EXTD=
EXTT0=
EXTT1=
EXTT2=
EXTT3=
EXTT4=
EXTT5=
EXTT6=
EXTT7=
EXTT8=
EXTT9=
EXTT10=
EXTT11=
EXTT12=
EXTT13=
EXTT14=
EXTT15=
EXTT16=
EXTT17=
EXTT18=
EXTT19=
EXTT20=
EXTT21=
EXTT22=
EXTT23=
PLAYORDER=
